<svg xmlns="http://www.w3.org/2000/svg" viewBox="0 0 664.6 265.6"><g><path d="M488.8,142.7h28.9V89.8c0-12.1,7-20.6,17.4-20.6c10,0,15.2,7.1,15.2,17.1v56.4h28.9v-62c0-21-12.6-35.8-33-35.8   c-13,0-22.1,5.6-28.9,15.8h-0.6v-13h-28V142.7z M432,45.1c-30.2,0-50.5,21.7-50.5,50.3c0,28.4,20.2,50.3,50.5,50.3   s50.5-21.9,50.5-50.3C482.5,66.8,462.3,45.1,432,45.1z M431.9,124.3c-13.7,0-21-11.5-21-28.9c0-17.6,7.2-28.9,21-28.9   s21.3,11.3,21.3,28.9C453.2,112.8,445.6,124.3,431.9,124.3z M299.2,142.7h81.2v-22.8h-46v-0.6l44-49.3V47.7h-79.2v22.8h44.5v0.6   l-44.5,49.7V142.7z M262.1,142.7h29.1v-95h-29.1V142.7z M194.6,142.7h28.9V99.1c0-19.9,11.9-28.6,30-26.2h0.6v-25   c-1.5-0.6-3.1-0.7-5.9-0.7c-11.3,0-18.9,5.2-25.4,16.3h-0.6V47.7h-27.6L194.6,142.7L194.6,142.7z M141.4,124.5   c-12.8,0-20.6-8.4-22.1-21.1h68.4c0.2-20.4-5.2-36.7-16.5-46.9c-8-7.4-18.6-11.5-31.9-11.5c-28.6,0-48.4,21.7-48.4,50.1   c0,28.6,18.9,50.5,50.3,50.5c11.9,0,21.3-3.1,29.1-8.5c8.4-5.8,14.3-14.1,16-22.4h-27.8C155.6,120.8,149.9,124.5,141.4,124.5z    M139.9,65.7c10.2,0,17.2,7.6,18.4,18.7h-38.8C121.7,73.1,127.8,65.7,139.9,65.7z M33,142.7h30.4l33-95H67.3l-18.6,61h-0.4   l-18.6-61H0L33,142.7z M262.1,13.9h29.1v25.8h-29.1V13.9z M52.5,265.4c-7.7,0-14.6-1.3-20.8-3.8s-11.5-6.1-15.9-10.6   s-7.8-9.8-10.2-16C3.2,229,2,222.3,2,215.2s1.2-13.8,3.5-19.9s5.7-11.4,10-16s9.6-8,15.7-10.6s12.9-3.8,20.5-3.8   c6.4,0,12.3,0.9,17.5,2.7c5.2,1.8,9.8,4.3,13.6,7.5c3.8,3.2,6.9,7,9.3,11.5c2.4,4.5,3.9,9.3,4.6,14.6H67.7c-1-4.3-2.8-7.8-5.3-10.3   c-2.5-2.5-6-3.8-10.3-3.8c-6.6,0-11.4,2.5-14.6,7.5c-3.2,5-4.8,11.8-4.8,20.5c0,8.5,1.6,15.3,4.8,20.2s8.1,7.4,14.6,7.4   c9.6,0,15.1-5.4,16.5-16.3h28.9c-0.2,5.4-1.5,10.5-3.6,15.3c-2.2,4.8-5.2,8.9-9.1,12.4s-8.6,6.3-14.1,8.2   C65.2,264.4,59.1,265.4,52.5,265.4z M151,265.4c-7.7,0-14.6-1.3-20.9-3.8s-11.6-6.1-16-10.6c-4.4-4.5-7.9-9.8-10.3-16   c-2.4-6.1-3.6-12.8-3.6-19.9s1.2-13.8,3.6-19.9c2.4-6.1,5.8-11.4,10.3-16c4.4-4.5,9.8-8,16-10.6s13.2-3.8,20.9-3.8   s14.6,1.3,20.9,3.8c6.2,2.5,11.6,6.1,16,10.6c4.4,4.5,7.8,9.8,10.2,16s3.6,12.8,3.6,19.9s-1.2,13.8-3.6,19.9s-5.8,11.4-10.2,16   c-4.4,4.5-9.7,8-16,10.6C165.6,264.1,158.6,265.4,151,265.4z M150.8,243.9c6.7,0,11.7-2.6,15.1-7.9c3.4-5.2,5.1-12.2,5.1-20.9   c0-8.6-1.7-15.6-5.1-21c-3.4-5.3-8.4-8-15.1-8s-11.7,2.7-15,8s-5,12.3-5,21c0,8.7,1.7,15.6,5,20.9   C139.1,241.3,144.1,243.9,150.8,243.9z M208.1,167.5h29.1v13h0.6c3.6-5.2,7.7-9.1,12.3-11.8c4.6-2.7,10.3-4,17-4   c5.2,0,9.8,0.9,13.9,2.7c4.1,1.8,7.5,4.3,10.4,7.4c2.8,3.1,5,6.9,6.5,11.3c1.5,4.4,2.2,9.2,2.2,14.6v61.8h-30.2v-55.6   c0-5.1-1.2-9.1-3.7-12.2c-2.5-3.1-6.2-4.6-11.1-4.6c-5.1,0-9.1,1.9-12.1,5.6s-4.5,8.5-4.5,14.5v52.5h-30.2V167.5z M310.1,167.5   h29.1v13h0.6c3.6-5.2,7.7-9.1,12.3-11.8c4.6-2.7,10.3-4,17-4c5.2,0,9.8,0.9,13.9,2.7c4.1,1.8,7.5,4.3,10.4,7.4   c2.8,3.1,5,6.9,6.5,11.3c1.5,4.4,2.2,9.2,2.2,14.6v61.8h-30.2v-55.6c0-5.1-1.2-9.1-3.7-12.2c-2.5-3.1-6.2-4.6-11.1-4.6   c-5.1,0-9.1,1.9-12.1,5.6s-4.5,8.5-4.5,14.5v52.5h-30.2L310.1,167.5L310.1,167.5z M458.5,265.2c-7.8,0-14.8-1.3-21.2-3.8   s-11.6-6.1-16-10.6c-4.3-4.5-7.7-9.9-10-16c-2.4-6.2-3.5-12.9-3.5-20c0-7,1.2-13.6,3.5-19.8c2.4-6.1,5.7-11.4,10-16   s9.5-8,15.4-10.6s12.5-3.8,19.8-3.8c6.8,0,12.9,1,18.3,3.1s10.1,5,14.2,8.7c5.7,5.2,9.9,11.8,12.7,19.8s4.1,16.8,4,26.4h-68.3   c1,6.4,3.2,11.5,6.7,15.2c3.5,3.7,8.3,5.6,14.7,5.6c4,0,7.2-0.8,9.8-2.5c2.6-1.7,4.6-4,5.9-7h29.5c-1,4.3-2.8,8.4-5.6,12.3   c-2.7,3.9-6.2,7.3-10.4,10.1c-4,2.9-8.4,5-13.3,6.5C470,264.5,464.6,265.2,458.5,265.2z M475.2,204.8c-0.6-5.7-2.5-10.2-5.8-13.5   c-3.2-3.3-7.3-5-12.2-5c-5.8,0-10.3,1.7-13.4,5c-3.1,3.3-5.1,7.9-6.1,13.5H475.2z M559.4,265.4c-7.7,0-14.6-1.3-20.8-3.8   s-11.5-6.1-15.9-10.6s-7.8-9.8-10.2-16c-2.4-6.1-3.6-12.8-3.6-19.9s1.2-13.8,3.5-19.9c2.3-6.1,5.7-11.4,10-16s9.5-8,15.7-10.6   s13-3.8,20.5-3.8c6.4,0,12.3,0.9,17.5,2.7c5.2,1.8,9.8,4.3,13.6,7.5c3.8,3.2,6.9,7,9.3,11.5c2.3,4.5,3.9,9.3,4.6,14.6h-29.1   c-1-4.3-2.8-7.8-5.3-10.3c-2.5-2.5-6-3.8-10.3-3.8c-6.6,0-11.4,2.5-14.7,7.5c-3.2,5-4.8,11.8-4.8,20.5c0,8.5,1.6,15.3,4.8,20.2   s8.1,7.4,14.7,7.4c9.7,0,15.2-5.4,16.5-16.3h28.9c-0.2,5.4-1.5,10.5-3.6,15.3c-2.2,4.8-5.2,8.9-9.1,12.4s-8.6,6.3-14.1,8.2   C572.2,264.4,566.1,265.4,559.4,265.4z M648.1,263.6c-4.5,0-8.5-0.4-12.2-1.2c-3.7-0.8-6.8-2.2-9.5-4.2s-4.8-4.7-6.3-8.1   c-1.5-3.4-2.2-7.6-2.2-12.7v-51h-12.6v-18.9h12.6v-24.8h29.5v24.8h17.2v18.9h-17.2v44.5c0,3.7,1,6.2,2.9,7.4   c1.9,1.2,4.5,1.9,7.7,1.9c1.4,0,2.7,0,3.9-0.1c1.2-0.1,2.2-0.1,2.8-0.1v22.1c-1.4,0.4-3.4,0.7-6.2,1   C655.6,263.4,652.2,263.6,648.1,263.6z"/><polygon fill="currentColor" points="578.7,47.7 593.5,47.7 608.3,79.4 645.3,0 660.2,0 615.7,95.3 600.9,95.3  "/></g></svg>