<?xml version="1.0" encoding="utf-8"?>
<!-- Generator: Adobe Illustrator 25.0.1, SVG Export Plug-In . SVG Version: 6.00 Build 0)  -->
<svg version="1.1" id="Ebene_1" xmlns="http://www.w3.org/2000/svg" xmlns:xlink="http://www.w3.org/1999/xlink" x="0px" y="0px"
	 viewBox="0 0 1270 309.3" style="enable-background:new 0 0 1270 309.3;" xml:space="preserve">
<style type="text/css">
	.st0{opacity:0.8;}
	.st1{fill:#624499;}
	.st2{fill:#3581C3;}
	.st3{fill:#334598;}
	.st4{fill:#E22028;}
	.st5{fill:#EB7324;}
	.st6{fill:#5756A4;}
</style>
<g id="Page-1">
	<g id="logo_ai4eu_beta">
		<g id="Group" class="st0">
			<g id="Path" transform="translate(28.000000, 177.000000)">
				<g>
					<path class="st1" d="M228.3,0.2h-189C18,0.2,0.7,17.5,0.7,38.8S18,77.4,39.3,77.4h189c21.3,0,38.6-17.3,38.6-38.6
						S240.4,0.2,219.1,0.2"/>
				</g>
			</g>
			<g id="Path_1_" transform="translate(446.000000, 177.000000)">
				<g>
					<path class="st2" d="M227.6,0.2H39.5C18.2,0.2,0.9,17.5,0.9,38.8s17.3,38.6,38.6,38.6h188.1c21.3,0,38.6-17.3,38.6-38.6
						S248.9,0.2,227.6,0.2"/>
				</g>
			</g>
			<g id="Path_2_" transform="translate(736.000000, 7.000000)">
				<g>
					<path class="st3" d="M221.3,0.1H38.8C17.5,0.1,0.2,17.4,0.2,38.7s17.3,38.6,38.6,38.6h182.5c21.3,0,38.6-17.3,38.6-38.6
						S242.6,0.1,221.3,0.1"/>
				</g>
			</g>
			<g id="Path_3_" transform="translate(736.000000, 232.000000)">
				<g>
					<path class="st2" d="M221.3,0.1H38.8C17.5,0.1,0.2,17.4,0.2,38.7s17.3,38.6,38.6,38.6h182.5c21.3,0,38.6-17.3,38.6-38.6
						C259.9,17.3,242.6,0.1,221.3,0.1"/>
				</g>
			</g>
			<g id="Path_4_" transform="translate(736.000000, 116.000000)">
				<g>
					<path class="st4" d="M200,0.8H38.8C17.5,0.8,0.2,18.1,0.2,39.4S17.5,78,38.8,78H200c21.3,0,38.6-17.3,38.6-38.6
						S221.3,0.8,200,0.8"/>
				</g>
			</g>
			<g id="Path_5_" transform="translate(345.000000, 6.000000)">
				<g>
					<path class="st5" d="M77.7,264.7v-226c0-21.3-17.3-38.6-38.6-38.6S0.5,17.4,0.5,38.7v226c0,21.3,17.3,38.6,38.6,38.6
						S77.7,286,77.7,264.7"/>
				</g>
			</g>
			<g id="Path_6_" transform="translate(736.000000, 7.000000)">
				<g>
					<path class="st5" d="M77.5,263.7v-225c0-21.3-17.3-38.6-38.6-38.6S0.3,17.4,0.3,38.7v224.9c0,21.3,17.3,38.6,38.6,38.6
						C60.2,302.3,77.5,285,77.5,263.7"/>
				</g>
			</g>
			<g id="Path_7_" transform="translate(576.000000, 113.000000)">
				<g>
					<path class="st4" d="M78,157.7V39C78,17.7,60.7,0.4,39.4,0.4S0.8,17.7,0.8,39v118.6c0,21.3,17.3,38.6,38.6,38.6
						C60.7,196.3,78,179,78,157.7"/>
				</g>
			</g>
			<g id="Path_8_" transform="translate(1019.000000, 0.000000)">
				<g>
					<path class="st4" d="M77.9,183V38.6C77.9,17.3,60.6,0,39.3,0S0.7,17.3,0.7,38.6V183c0,21.3,17.3,38.6,38.6,38.6
						S77.9,204.3,77.9,183"/>
				</g>
			</g>
			<g id="Path_9_" transform="translate(1191.000000, 0.000000)">
				<g>
					<path class="st6" d="M77.5,183.8V39.4c0-21.3-17.3-38.6-38.6-38.6S0.3,18.1,0.3,39.4v144.4c0,21.3,17.3,38.6,38.6,38.6
						S77.5,205.1,77.5,183.8"/>
				</g>
			</g>
			<g id="Path_10_" transform="translate(0.000000, 3.000000)">
				<g>
					<path class="st2" d="M127.1,21L4.7,246.5c-10.2,18.7-3.2,42.2,15.5,52.3c18.7,10.2,42.2,3.2,52.3-15.5L195,57.9
						c10.2-18.7,3.2-42.2-15.5-52.3C160.7-4.7,137.3,2.3,127.1,21"/>
				</g>
			</g>
			<g id="Path_11_" transform="translate(446.000000, 3.000000)">
				<g>
					<path class="st3" d="M99.8,21L5.6,194.5c-10.2,18.7-3.2,42.2,15.5,52.3c18.7,10.2,42.2,3.2,52.3-15.5l94.2-173.5
						c10.2-18.7,3.2-42.2-15.5-52.3C133.4-4.7,109.9,2.3,99.8,21"/>
				</g>
			</g>
			<g id="Path_12_" transform="translate(122.000000, 3.000000)">
				<g>
					<path class="st4" d="M4.7,57.9l122.4,225.5c10.2,18.7,33.6,25.7,52.3,15.5c18.7-10.2,25.7-33.6,15.5-52.3L72.6,21
						C62.4,2.3,39-4.7,20.3,5.5C1.5,15.7-5.4,39.1,4.7,57.9"/>
				</g>
			</g>
			<g id="Path_13_" transform="translate(1019.000000, 144.000000)">
				<g>
					<path class="st5" d="M0.6,39.6c0,17,3.5,33.5,9.8,48.4c9.5,22.3,25.2,41.2,45,54.6s43.9,21.3,69.5,21.2c17,0,33.5-3.5,48.4-9.8
						c22.3-9.5,41.2-25.2,54.6-45s21.3-43.9,21.2-69.5c0-21.3-17.3-38.6-38.6-38.6s-38.6,17.3-38.6,38.6c0,6.6-1.3,12.7-3.7,18.3
						c-3.5,8.4-9.6,15.6-17.1,20.7s-16.4,8-26.2,8c-6.6,0-12.7-1.3-18.3-3.7c-8.4-3.5-15.6-9.5-20.7-17.1c-5.1-7.5-8-16.4-8-26.3
						c0-21.3-17.3-38.6-38.6-38.6C17.9,1,0.6,18.3,0.6,39.6"/>
				</g>
			</g>
		</g>
	</g>
</g>
</svg>
